<?xml version="1.0" standalone="no"?>
<!DOCTYPE svg PUBLIC "-//W3C//DTD SVG 20010904//EN"
 "http://www.w3.org/TR/2001/REC-SVG-20010904/DTD/svg10.dtd">
<svg version="1.0" xmlns="http://www.w3.org/2000/svg"
 width="260.000000pt" height="260.000000pt" viewBox="0 0 260.000000 260.000000"
 preserveAspectRatio="xMidYMid meet">
<metadata>
Created by potrace 1.14, written by Peter Selinger 2001-2017
</metadata>
<g transform="translate(0.000000,260.000000) scale(0.100000,-0.100000)"
fill="#000000" stroke="none">
<path d="M0 1300 l0 -1300 1300 0 1300 0 0 1300 0 1300 -1300 0 -1300 0 0
-1300z m1200 945 l0 -65 -130 0 -130 0 0 -457 c0 -390 2 -455 14 -443 7 8 177
213 377 455 l362 440 -36 3 -37 3 0 65 0 64 230 0 230 0 0 -65 0 -65 -107 0
-108 0 -271 -331 -272 -330 325 -500 325 -499 129 0 129 0 0 -65 0 -65 -345 0
-345 0 0 65 0 65 65 0 c36 0 65 3 65 6 0 9 -504 794 -510 793 -3 0 -53 -60
-112 -132 l-107 -132 -1 -267 0 -268 130 0 130 0 0 -65 0 -65 -380 0 -380 0 0
65 0 65 125 0 125 0 0 830 0 830 -125 0 -125 0 0 65 0 65 380 0 380 0 0 -65z"/>
</g>
</svg>
